<svg width="140" height="23" viewBox="0 0 140 23" fill="none" xmlns="http://www.w3.org/2000/svg">
<g clip-path="url(#clip0_61_400)">
<path fill-rule="evenodd" clip-rule="evenodd" d="M14.1516 0.568214C11.9185 0.568214 10.1083 2.37848 10.1083 4.61153C10.1083 6.84461 11.9185 8.65485 14.1516 8.65485C16.3848 8.65485 18.1949 6.84461 18.1949 4.61153C18.1949 2.37848 16.3848 0.568214 14.1516 0.568214ZM6.24602 8.43424C10.4549 8.43424 13.8668 11.8462 13.8668 16.055V22.3012H10.0762V16.055C10.0762 15.6067 9.99926 15.1766 9.85777 14.7768L4.28989 20.3447L1.60952 17.6643L6.97897 12.2949C6.74173 12.2489 6.49668 12.2249 6.24602 12.2249H0V8.43424H6.24602ZM22.1516 8.43424C17.9427 8.43424 14.5307 11.8462 14.5307 16.055V22.3012H18.3213V16.055C18.3213 15.704 18.3686 15.3639 18.457 15.0409L24.2814 20.8653L26.9619 18.1848L21.1375 12.3605C21.4604 12.2721 21.8006 12.2249 22.1516 12.2249H28.3975V8.43424H22.1516Z" fill="#FF814C"/>
<path d="M34.4629 22.5204V0.732422H40.6335L47.2494 19.4032H47.7265V0.732422H51.2571V22.5204H45.2138L38.4387 3.81773H37.9935V22.5204H34.4629Z" fill="#183282"/>
<path d="M65.4012 19.6564L66.2917 19.5612L66.3554 22.1375C63.938 22.6252 61.7963 22.8691 59.9303 22.8691C57.5766 22.8691 55.8802 22.2222 54.8413 20.9288C53.8234 19.6352 53.3145 17.5678 53.3145 14.7264C53.3145 9.08587 55.6151 6.26562 60.2167 6.26562C64.6696 6.26562 66.8962 8.69356 66.8962 13.5495L66.6736 16.0303H56.8132C56.8344 17.3452 57.1207 18.31 57.6721 18.9249C58.2233 19.5399 59.2518 19.8472 60.7574 19.8472C62.2628 19.8472 63.8109 19.7838 65.4012 19.6564ZM63.4928 13.3587C63.4928 11.7895 63.2383 10.6974 62.7293 10.0825C62.2419 9.44635 61.4041 9.12827 60.2167 9.12827C59.0292 9.12827 58.1599 9.45694 57.6085 10.1143C57.0783 10.7717 56.8026 11.8531 56.7816 13.3587H63.4928Z" fill="#183282"/>
<path d="M77.1963 9.57403H72.8068V16.5716C72.8068 17.8652 72.9023 18.7239 73.0931 19.148C73.2839 19.572 73.7716 19.7843 74.5563 19.7843L77.1645 19.6888L77.3234 22.4559C75.9027 22.7316 74.8214 22.8696 74.0792 22.8696C72.2769 22.8696 71.0363 22.4559 70.3578 21.629C69.7003 20.8019 69.3717 19.2435 69.3717 16.9534V9.57403H67.3359V6.61597H69.3717V2.00391H72.8068V6.61597H77.1963V9.57403Z" fill="#183282"/>
<path d="M77.209 6.61523H80.6125L83.1251 19.5609H83.7612L86.7831 6.93332H90.3455L93.3671 19.5609H94.0032L96.4843 6.61523H99.9193L96.5477 22.5189H91.0452L88.5641 11.609L86.0833 22.5189H80.5806L77.209 6.61523Z" fill="#183282"/>
<path d="M102.132 8.3331C103.234 6.95478 105.058 6.26562 107.603 6.26562C110.147 6.26562 111.96 6.95478 113.042 8.3331C114.144 9.71139 114.696 11.7789 114.696 14.5356C114.696 17.2921 114.166 19.3701 113.105 20.7696C112.045 22.1694 110.211 22.8691 107.603 22.8691C104.995 22.8691 103.16 22.1694 102.1 20.7696C101.04 19.3701 100.51 17.2921 100.51 14.5356C100.51 11.7789 101.05 9.71139 102.132 8.3331ZM104.74 18.6704C105.228 19.5187 106.182 19.9428 107.603 19.9428C109.023 19.9428 109.978 19.5187 110.465 18.6704C110.953 17.8223 111.197 16.4334 111.197 14.5037C111.197 12.5741 110.932 11.2063 110.402 10.4005C109.893 9.59477 108.96 9.19188 107.603 9.19188C106.245 9.19188 105.302 9.59477 104.772 10.4005C104.263 11.2063 104.008 12.5741 104.008 14.5037C104.008 16.4334 104.252 17.8223 104.74 18.6704Z" fill="#183282"/>
<path d="M116.549 22.5191V6.6155H119.984V8.52395C121.786 7.35768 123.589 6.60489 125.391 6.26562V9.73262C123.568 10.0931 122.009 10.5596 120.716 11.1321L120.016 11.4184V22.5191H116.549Z" fill="#183282"/>
<path d="M129.918 22.5195H126.451V0H129.918V13.0091L131.89 12.8183L135.643 6.61591H139.524L134.944 14.0589L139.778 22.5195H135.866L131.986 15.8081L129.918 16.0308V22.5195Z" fill="#183282"/>
</g>
<defs>
<clipPath id="clip0_61_400">
<rect width="140" height="22.9964" fill="white"/>
</clipPath>
</defs>
</svg>
